<?xml version="1.0" encoding="UTF-8"?>
<!DOCTYPE svg PUBLIC "-//W3C//DTD SVG 1.1//EN" "http://www.w3.org/Graphics/SVG/1.1/DTD/svg11.dtd">
<svg xmlns="http://www.w3.org/2000/svg" xmlns:xlink="http://www.w3.org/1999/xlink" version="1.1" width="1656px" height="1195px" viewBox="-0.5 -0.5 1656 1195"><defs/><g><path d="M 230.13 -231 L 1423.88 596.5 L 230.13 1424 Z" fill="#ffffff" stroke="#000000" stroke-miterlimit="10" transform="rotate(-90,827.01,596.5)" pointer-events="all"/><path d="M 534.5 362.12 C 456.5 362.12 437 429.62 499.4 443.12 C 437 472.82 507.2 537.62 557.9 510.62 C 593 564.62 710 564.62 749 510.62 C 827 510.62 827 456.62 778.25 429.62 C 827 375.62 749 321.62 680.75 348.62 C 632 308.12 554 308.12 534.5 362.12 Z" fill="#fff2cc" stroke="#d6b656" stroke-miterlimit="10" pointer-events="all"/><g fill="#000000" font-family="Helvetica" text-anchor="middle" font-size="18px"><text x="631.5" y="426.12">ИТ Компания</text><text x="631.5" y="448.12">Разработка ПО</text></g><path d="M 864.5 342.12 C 786.5 342.12 767 409.62 829.4 423.12 C 767 452.82 837.2 517.62 887.9 490.62 C 923 544.62 1040 544.62 1079 490.62 C 1157 490.62 1157 436.62 1108.25 409.62 C 1157 355.62 1079 301.62 1010.75 328.62 C 962 288.12 884 288.12 864.5 342.12 Z" fill="#fff2cc" stroke="#d6b656" stroke-miterlimit="10" pointer-events="all"/><g fill="#000000" font-family="Helvetica" text-anchor="middle" font-size="18px"><text x="961.5" y="406.12">ИТ Компания</text><text x="961.5" y="428.12">Разработка ПО</text></g><path d="M 974.5 542.12 C 896.5 542.12 877 609.62 939.4 623.12 C 877 652.82 947.2 717.62 997.9 690.62 C 1033 744.62 1150 744.62 1189 690.62 C 1267 690.62 1267 636.62 1218.25 609.62 C 1267 555.62 1189 501.62 1120.75 528.62 C 1072 488.12 994 488.12 974.5 542.12 Z" fill="#fff2cc" stroke="#d6b656" stroke-miterlimit="10" pointer-events="all"/><g fill="#000000" font-family="Helvetica" text-anchor="middle" font-size="18px"><text x="1071.5" y="606.12">ИТ Компания</text><text x="1071.5" y="628.12">Разработка ПО</text></g><path d="M 374.5 522.12 C 296.5 522.12 277 589.62 339.4 603.12 C 277 632.82 347.2 697.62 397.9 670.62 C 433 724.62 550 724.62 589 670.62 C 667 670.62 667 616.62 618.25 589.62 C 667 535.62 589 481.62 520.75 508.62 C 472 468.12 394 468.12 374.5 522.12 Z" fill="#fff2cc" stroke="#d6b656" stroke-miterlimit="10" pointer-events="all"/><g fill="#000000" font-family="Helvetica" text-anchor="middle" font-size="18px"><text x="471.5" y="586.12">ИТ Компания</text><text x="471.5" y="608.12">Разработка ПО</text></g><path d="M 644.5 542.12 C 566.5 542.12 547 609.62 609.4 623.12 C 547 652.82 617.2 717.62 667.9 690.62 C 703 744.62 820 744.62 859 690.62 C 937 690.62 937 636.62 888.25 609.62 C 937 555.62 859 501.62 790.75 528.62 C 742 488.12 664 488.12 644.5 542.12 Z" fill="#fff2cc" stroke="#d6b656" stroke-miterlimit="10" pointer-events="all"/><g fill="#000000" font-family="Helvetica" text-anchor="middle" font-size="18px"><text x="741.5" y="606.12">ИТ Компания</text><text x="741.5" y="628.12">Разработка ПО</text></g><path d="M 1174.5 702.12 C 1096.5 702.12 1077 769.62 1139.4 783.12 C 1077 812.82 1147.2 877.62 1197.9 850.62 C 1233 904.62 1350 904.62 1389 850.62 C 1467 850.62 1467 796.62 1418.25 769.62 C 1467 715.62 1389 661.62 1320.75 688.62 C 1272 648.12 1194 648.12 1174.5 702.12 Z" fill="#fff2cc" stroke="#d6b656" stroke-miterlimit="10" pointer-events="all"/><g fill="#000000" font-family="Helvetica" text-anchor="middle" font-size="18px"><text x="1271.5" y="766.12">ИТ Компания</text><text x="1271.5" y="788.12">Разработка ПО</text></g><path d="M 844.5 732.12 C 766.5 732.12 747 799.62 809.4 813.12 C 747 842.82 817.2 907.62 867.9 880.62 C 903 934.62 1020 934.62 1059 880.62 C 1137 880.62 1137 826.62 1088.25 799.62 C 1137 745.62 1059 691.62 990.75 718.62 C 942 678.12 864 678.12 844.5 732.12 Z" fill="#fff2cc" stroke="#d6b656" stroke-miterlimit="10" pointer-events="all"/><g fill="#000000" font-family="Helvetica" text-anchor="middle" font-size="18px"><text x="941.5" y="796.12">ИТ Компания</text><text x="941.5" y="818.12">Разработка ПО</text></g><path d="M 554.5 722.12 C 476.5 722.12 457 789.62 519.4 803.12 C 457 832.82 527.2 897.62 577.9 870.62 C 613 924.62 730 924.62 769 870.62 C 847 870.62 847 816.62 798.25 789.62 C 847 735.62 769 681.62 700.75 708.62 C 652 668.12 574 668.12 554.5 722.12 Z" fill="#fff2cc" stroke="#d6b656" stroke-miterlimit="10" pointer-events="all"/><g fill="#000000" font-family="Helvetica" text-anchor="middle" font-size="18px"><text x="651.5" y="786.12">ИТ Компания</text><text x="651.5" y="808.12">Разработка ПО</text></g><path d="M 244.5 722.12 C 166.5 722.12 147 789.62 209.4 803.12 C 147 832.82 217.2 897.62 267.9 870.62 C 303 924.62 420 924.62 459 870.62 C 537 870.62 537 816.62 488.25 789.62 C 537 735.62 459 681.62 390.75 708.62 C 342 668.12 264 668.12 244.5 722.12 Z" fill="#fff2cc" stroke="#d6b656" stroke-miterlimit="10" pointer-events="all"/><g fill="#000000" font-family="Helvetica" text-anchor="middle" font-size="18px"><text x="341.5" y="786.12">ИТ Компания</text><text x="341.5" y="808.12">Разработка ПО</text></g></g></svg>