<?xml version="1.0" encoding="UTF-8" standalone="no"?>
<svg
   xmlns:dc="http://purl.org/dc/elements/1.1/"
   xmlns:cc="http://creativecommons.org/ns#"
   xmlns:rdf="http://www.w3.org/1999/02/22-rdf-syntax-ns#"
   xmlns:svg="http://www.w3.org/2000/svg"
   xmlns="http://www.w3.org/2000/svg"
   xmlns:sodipodi="http://sodipodi.sourceforge.net/DTD/sodipodi-0.dtd"
   xmlns:inkscape="http://www.inkscape.org/namespaces/inkscape"
   id="icons"
   enable-background="new 0 0 64 64"
   height="512"
   viewBox="0 0 64 64"
   width="512"
   version="1.1"
   sodipodi:docname="repair-man.svg"
   inkscape:version="1.0.2 (e86c870879, 2021-01-15)">
  <metadata
     id="metadata111">
    <rdf:RDF>
      <cc:Work
         rdf:about="">
        <dc:format>image/svg+xml</dc:format>
        <dc:type
           rdf:resource="http://purl.org/dc/dcmitype/StillImage" />
        <dc:title></dc:title>
      </cc:Work>
    </rdf:RDF>
  </metadata>
  <defs
     id="defs109" />
  <sodipodi:namedview
     pagecolor="#ffffff"
     bordercolor="#666666"
     borderopacity="1"
     objecttolerance="10"
     gridtolerance="10"
     guidetolerance="10"
     inkscape:pageopacity="0"
     inkscape:pageshadow="2"
     inkscape:window-width="1920"
     inkscape:window-height="1021"
     id="namedview107"
     showgrid="false"
     inkscape:zoom="1.158716"
     inkscape:cx="223.94591"
     inkscape:cy="257.97348"
     inkscape:window-x="0"
     inkscape:window-y="31"
     inkscape:window-maximized="1"
     inkscape:current-layer="icons" />
  <path
     d="m54 29.896h-1.5v10 3h3v-3-10z"
     fill="#e6e9ed"
     id="path2" />
  <path
     d="m56.5 42.896v12h-1-3-1v-12h1 3z"
     fill="#ed5565"
     id="path4" />
  <path
     d="m55.5 54.896v3h-1.5-1.5v-3z"
     fill="#da4453"
     id="path6" />
  <path
     d="m38.5 21.557c1.449.74 2 1.34 2 1.34h-2-30-2s.55-.6 2-1.34c2.279-1.16 6.82-2.66 15-2.66s12.72 1.499 15 2.66z"
     fill="#656d78"
     id="path8" />
  <path
     d="m23.5 18.896c-8.18 0-12.721 1.5-15 2.66v-2.66c0-8.28 6.72-15 15-15 8.29 0 15 6.72 15 15v2.66c-2.28-1.16-6.82-2.66-15-2.66z"
     fill="#ed5565"
     id="path10"
     style="fill:#1655d5;fill-opacity:1" />
  <path
     d="m23.5 3.896c-.506 0-1.006.026-1.5.076 7.584.753 13.498 7.149 13.498 14.924v1.482c1.271.386 2.259.8 3.002 1.178v-2.66c0-8.28-6.71-15-15-15z"
     fill="#da4453"
     id="path12"
     style="fill:#16a3d5;fill-opacity:0.53112543" />
  <path
     d="m38.5 22.896v4c0 5.76-3.24 10.76-8 13.27-2.09 1.101-4.471 1.73-7 1.73-2.53 0-4.91-.63-7-1.73-4.76-2.51-8-7.51-8-13.27v-4z"
     fill="#eac6bb"
     id="path14" />
  <path
     d="m35.498 22.896v4c0 5.76-3.24 10.76-8 13.27-1.67.88-3.529 1.452-5.499 1.649.494.049.993.081 1.501.081 2.529 0 4.91-.63 7-1.73 4.76-2.51 8-7.51 8-13.27v-4z"
     fill="#d3b1a9"
     id="path16" />
  <path
     d="m30.5 40.166v5.73l-4 2-3-1-3 1-4-1.99v-5.74c2.09 1.101 4.47 1.73 7 1.73 2.529 0 4.91-.629 7-1.73z"
     fill="#ffce54"
     id="path18" />
  <path
     d="m45.5 53.906v7.99h-44v-7.99c0-4.43 3.58-8.01 8-8.01l7 .01 4 1.99 3-1 3 1 4-2 7 .01c4.42 0 8 3.571 8 8z"
     fill="#ed5565"
     id="path20"
     style="fill:#1655d5;fill-opacity:1" />
  <path
     d="m37.5 45.906-3.002-.004v.004c4.42 0 8 3.57 8 8v7.99h3.002v-7.99c0-4.429-3.58-8-8-8z"
     fill="#da4453"
     id="path22"
     style="fill:#157ed5;fill-opacity:1" />
  <path
     d="m1.5 54.898c-.553 0-1-.447-1-1 0-4.964 4.038-9.002 9.002-9.002.553 0 1 .447 1 1s-.447 1-1 1c-3.861 0-7.002 3.141-7.002 7.002 0 .553-.447 1-1 1z"
     id="path24" />
  <path
     d="m45.5 54.898c-.553 0-1-.447-1-1 0-3.859-3.141-7-7-7-.553 0-1-.447-1-1s.447-1 1-1c4.963 0 9 4.037 9 9 0 .553-.447 1-1 1z"
     id="path26" />
  <path
     d="m16.5 46.898-6.998-.002c-.553 0-1-.448-1-1 0-.553.448-1 1-1l6.998.002c.553 0 1 .448 1 1 0 .553-.448 1-1 1z"
     id="path28" />
  <path
     d="m37.5 46.898-7-.002c-.553 0-1-.448-1-1 0-.553.448-1 1-1l7 .002c.553 0 1 .448 1 1 0 .553-.448 1-1 1z"
     id="path30" />
  <path
     d="m1.502 62.896c-.552 0-1-.447-1-1l-.002-7.998c0-.552.447-1 1-1 .552 0 1 .447 1 1l.002 7.998c0 .552-.447 1-1 1z"
     id="path32" />
  <path
     d="m45.5 62.896c-.553 0-1-.447-1-1v-7.998c0-.553.447-1 1-1s1 .447 1 1v7.998c0 .553-.447 1-1 1z"
     id="path34" />
  <path
     d="m16.5 46.898c-.553 0-1-.447-1-1v-5.732c0-.553.447-1 1-1s1 .447 1 1v5.732c0 .553-.447 1-1 1z"
     id="path36" />
  <path
     d="m30.5 46.896c-.553 0-1-.447-1-1v-5.73c0-.553.447-1 1-1s1 .447 1 1v5.73c0 .553-.447 1-1 1z"
     id="path38" />
  <path
     d="m23.5 42.896c-8.822 0-16-7.178-16-16 0-.553.447-1 1-1s1 .447 1 1c0 7.72 6.28 14 14 14s14-6.28 14-14c0-.553.447-1 1-1s1 .447 1 1c0 8.823-7.178 16-16 16z"
     id="path40" />
  <path
     d="m38.5 19.895c-.553 0-1-.447-1-1 0-7.72-6.28-14-14-14s-14 6.28-14 14c0 .553-.447 1-1 1s-1-.447-1-1c0-8.822 7.178-16 16-16s16 7.178 16 16c0 .552-.447 1-1 1z"
     id="path42" />
  <path
     d="m8.5 27.896c-.553 0-1-.447-1-1v-4.002c0-.553.447-1 1-1s1 .447 1 1v4.002c0 .553-.447 1-1 1z"
     id="path44" />
  <path
     d="m38.5 27.896c-.553 0-1-.447-1-1v-4.002c0-.553.447-1 1-1s1 .447 1 1v4.002c0 .553-.447 1-1 1z"
     id="path46" />
  <path
     d=""
     style="fill:none;stroke:#000;stroke-width:2;stroke-linecap:round;stroke-linejoin:round;stroke-miterlimit:10"
     id="path48" />
  <path
     d=""
     style="fill:none;stroke:#000;stroke-width:2;stroke-linecap:round;stroke-linejoin:round;stroke-miterlimit:10"
     id="path50" />
  <path
     d="m40.5 23.895h-34c-.553 0-1-.447-1-1s.447-1 1-1h34c.553 0 1 .447 1 1s-.447 1-1 1z"
     id="path52" />
  <path
     d="m40.5 23.895c-.272 0-.544-.11-.741-.328-.026-.027-3.654-3.672-16.259-3.672s-16.232 3.644-16.268 3.681c-.38.396-1.008.419-1.409.046-.4-.373-.432-.993-.064-1.399.16-.177 4.08-4.328 17.741-4.328s17.581 4.151 17.741 4.328c.371.409.34 1.042-.069 1.413-.192.173-.432.259-.672.259z"
     id="path54" />
  <path
     d="m38.5 22.555c-.553 0-1-.447-1-1v-2.66c0-.553.447-1 1-1s1 .447 1 1v2.66c0 .552-.447 1-1 1z"
     id="path56" />
  <path
     d="m8.5 22.555c-.553 0-1-.447-1-1v-2.66c0-.553.447-1 1-1s1 .447 1 1v2.66c0 .552-.447 1-1 1z"
     id="path58" />
  <path
     d="m23.5 4.895c-.553 0-1-.447-1-1v-1c0-.553.447-1 1-1s1 .447 1 1v1c0 .552-.447 1-1 1z"
     id="path60" />
  <path
     d="m26.501 48.895c-.367 0-.721-.202-.896-.553-.247-.494-.047-1.095.447-1.342l4-1.998c.494-.245 1.096-.047 1.342.447.247.494.047 1.095-.447 1.342l-4 1.998c-.143.071-.296.106-.446.106z"
     id="path62" />
  <path
     d="m26.5 48.895c-.104 0-.211-.017-.315-.051l-3-.998c-.524-.175-.808-.741-.634-1.265.175-.524.742-.806 1.265-.634l3 .998c.524.175.808.741.634 1.265-.14.42-.531.685-.95.685z"
     id="path64" />
  <path
     d="m20.5 48.895c-.419 0-.81-.265-.949-.685-.174-.523.109-1.09.634-1.265l3-.998c.524-.172 1.09.109 1.265.634.174.523-.109 1.09-.634 1.265l-3 .998c-.105.034-.212.051-.316.051z"
     id="path66" />
  <path
     d="m20.499 48.895c-.149 0-.302-.033-.445-.105l-4-1.996c-.494-.246-.695-.847-.448-1.341.246-.493.845-.696 1.341-.448l4 1.996c.494.246.695.847.448 1.341-.175.349-.529.553-.896.553z"
     id="path68" />
  <path
     d="m23.534 52.897c-.553 0-1.005-.447-1.005-1s.442-1 .994-1h.011c.552 0 1 .447 1 1s-.448 1-1 1z"
     id="path70" />
  <path
     d="m23.534 56.897c-.553 0-1.005-.447-1.005-1s.442-1 .994-1h.011c.552 0 1 .447 1 1s-.448 1-1 1z"
     id="path72" />
  <path
     d="m23.534 60.897c-.553 0-1.005-.447-1.005-1s.442-1 .994-1h.011c.552 0 1 .447 1 1s-.448 1-1 1z"
     id="path74" />
  <path
     d="m21.5 12.895c-.209 0-.419-.065-.599-.2-.442-.331-.532-.958-.2-1.399l3-4c.331-.442.958-.531 1.399-.2.442.331.532.958.2 1.399l-3 4c-.196.262-.495.4-.8.4z"
     id="path76" />
  <path
     d="m22.501 16.895c-.209 0-.419-.065-.599-.2-.442-.331-.532-.958-.2-1.399l3-4c.331-.443.958-.531 1.399-.2.442.331.532.958.2 1.399l-3 4c-.196.262-.495.4-.8.4z"
     id="path78" />
  <path
     d="m25.501 12.895h-4c-.553 0-1-.447-1-1s.447-1 1-1h4c.553 0 1 .447 1 1s-.447 1-1 1z"
     id="path80" />
  <path
     d="m56.499 55.894h-5c-.553 0-1-.447-1-1v-12c0-.553.447-1 1-1s1 .447 1 1v11h3v-11c0-.553.447-1 1-1s1 .447 1 1v12c0 .552-.447 1-1 1z"
     id="path82" />
  <path
     d="m55.499 58.896h-3.001c-.553 0-1-.447-1-1v-3.003c0-.553.447-1 1-1s1 .447 1 1v2.003h1.001v-2.003c0-.553.447-1 1-1s1 .447 1 1v3.003c0 .553-.447 1-1 1z"
     id="path84" />
  <path
     d="m 55.499,43.899 c -0.553,0 -1,-0.447 -1,-1 V 30.894 H 53.498 V 42.9 c 0,0.553 -0.447,1 -1,1 -0.553,0 -1,-0.447 -1,-1 V 29.894 c 0,-0.553 0.911072,-0.454197 1,-1 0.805416,-4.943283 1.675678,-8.242022 3.001,0 0.08779,0.545986 1,0.447 1,1 V 42.9 c 0,0.552 -0.447,0.999 -1,0.999 z"
     id="path86"
     sodipodi:nodetypes="ssccsssssssss" />
  <path
     d="m53.999 62.896c-.553 0-1-.447-1-1v-4c0-.553.447-1 1-1s1 .447 1 1v4c0 .553-.447 1-1 1z"
     id="path88" />
  <path
     d="m57.498 43.894h-7c-.553 0-1-.447-1-1s.447-1 1-1h7c.553 0 1 .447 1 1s-.447 1-1 1z"
     id="path90" />
  <path
     d="m55.499 40.896h-3.001c-.553 0-1-.447-1-1s.447-1 1-1h3.001c.553 0 1 .447 1 1s-.447 1-1 1z"
     id="path94" />
  <path
     d="m46.528 36.901c-.553 0-1.005-.447-1.005-1s.442-1 .994-1h.011c.552 0 1 .447 1 1s-.448 1-1 1z"
     id="path100" />
  <path
     d="m60.542 39.904c-.553 0-1.005-.447-1.005-1s.442-1 .994-1h.011c.552 0 1 .447 1 1s-.448 1-1 1z"
     id="path102" />
  <path
     d="m48.53 25.891c-.553 0-1.005-.447-1.005-1s.442-1 .994-1h.011c.552 0 1 .447 1 1s-.448 1-1 1z"
     id="path104" />
  <path
     style="fill:none;fill-rule:evenodd;stroke:#000000;stroke-width:1.225;stroke-linecap:butt;stroke-linejoin:miter;stroke-miterlimit:4;stroke-dasharray:none;stroke-opacity:1"
     d="m 13.563335,33.584141 c 7.693609,6.218714 11.629215,5.647755 18.681167,-0.334373"
     id="path936"
     sodipodi:nodetypes="cc" />
  <path
     d="m 14.779223,27.633518 c -0.553,0 -1.005,-0.447 -1.005,-1 0,-0.553 0.442,-1 0.994,-1 h 0.011 c 0.552,0 1,0.447 1,1 0,0.553 -0.448,1 -1,1 z"
     id="path104-3" />
  <path
     d="m 30.307425,27.011782 c -0.553,0 -1.005,-0.447 -1.005,-1 0,-0.553 0.442,-1 0.994,-1 h 0.011 c 0.552,0 1,0.447 1,1 0,0.553 -0.448,1 -1,1 z"
     id="path104-3-6" />
  <text
     xml:space="preserve"
     style="font-style:normal;font-weight:normal;font-size:5.06664px;line-height:1.16111px;font-family:sans-serif;letter-spacing:0px;word-spacing:0px;fill:#000000;fill-opacity:1;stroke:none;stroke-width:0.0791662px;stroke-linecap:butt;stroke-linejoin:miter;stroke-opacity:1"
     x="4.7120686"
     y="55.398163"
     id="text980"
     transform="scale(1.0207054,0.97971461)"><tspan
       sodipodi:role="line"
       id="tspan978"
       x="4.7120686"
       y="55.398163"
       style="stroke-width:0.0791662px">Эртос</tspan></text>
  <path
     d="m 32.359723,56.234349 c -0.209,0 -0.419,-0.065 -0.599,-0.2 -0.442,-0.331 -0.532,-0.958 -0.2,-1.399 l 3,-4 c 0.331,-0.442 0.958,-0.531 1.399,-0.2 0.442,0.331 0.532,0.958 0.2,1.399 l -3,4 c -0.196,0.262 -0.495,0.4 -0.8,0.4 z"
     id="path76-7" />
  <path
     d="m 33.360723,60.234349 c -0.209,0 -0.419,-0.065 -0.599,-0.2 -0.442,-0.331 -0.532,-0.958 -0.2,-1.399 l 3,-4 c 0.331,-0.443 0.958,-0.531 1.399,-0.2 0.442,0.331 0.532,0.958 0.2,1.399 l -3,4 c -0.196,0.262 -0.495,0.4 -0.8,0.4 z"
     id="path78-5" />
  <path
     d="m 36.360723,56.234349 h -4 c -0.553,0 -1,-0.447 -1,-1 0,-0.553 0.447,-1 1,-1 h 4 c 0.553,0 1,0.447 1,1 0,0.553 -0.447,1 -1,1 z"
     id="path80-3" />
</svg>
